<mxfile host="app.diagrams.net" agent="Mozilla/5.0 (Windows NT 10.0; Win64; x64; rv:139.0) Gecko/20100101 Firefox/139.0" version="27.1.4">
  <diagram name="Page-1" id="RjkWltox62vTc8GNIFXi">
    <mxGraphModel dx="1662" dy="973" grid="1" gridSize="10" guides="1" tooltips="1" connect="1" arrows="1" fold="1" page="1" pageScale="1" pageWidth="1654" pageHeight="1169" math="0" shadow="0">
      <root>
        <mxCell id="0" />
        <mxCell id="1" parent="0" />
        <mxCell id="9kNU0SyaG1HSVs7dnBc6-4" style="edgeStyle=orthogonalEdgeStyle;rounded=0;orthogonalLoop=1;jettySize=auto;html=1;exitX=1;exitY=0.5;exitDx=0;exitDy=0;entryX=0;entryY=0.5;entryDx=0;entryDy=0;" edge="1" parent="1" source="9kNU0SyaG1HSVs7dnBc6-2" target="9kNU0SyaG1HSVs7dnBc6-3">
          <mxGeometry relative="1" as="geometry" />
        </mxCell>
        <mxCell id="9kNU0SyaG1HSVs7dnBc6-2" value="data" style="rectangle;fillColor=#fff2cc;strokeColor=#d6b656;" name="data" vertex="1" parent="1" tooltip="⚠️ Node not part of any valid pattern.">
          <mxGeometry x="340" y="230" width="100" height="50" as="geometry" />
        </mxCell>
        <mxCell id="9kNU0SyaG1HSVs7dnBc6-6" style="edgeStyle=orthogonalEdgeStyle;rounded=0;orthogonalLoop=1;jettySize=auto;html=1;exitX=1;exitY=0.5;exitDx=0;exitDy=0;entryX=0;entryY=0.5;entryDx=0;entryDy=0;" edge="1" parent="1" source="9kNU0SyaG1HSVs7dnBc6-3" target="9kNU0SyaG1HSVs7dnBc6-5">
          <mxGeometry relative="1" as="geometry" />
        </mxCell>
        <mxCell id="9kNU0SyaG1HSVs7dnBc6-3" value="transform" style="rounded=1;whiteSpace=wrap;html=1;arcSize=50;fillColor=#f8cecc;strokeColor=#b85450;" name="transform" vertex="1" parent="1">
          <mxGeometry x="520" y="230" width="100" height="50" as="geometry" />
        </mxCell>
        <mxCell id="9kNU0SyaG1HSVs7dnBc6-8" style="edgeStyle=orthogonalEdgeStyle;rounded=0;orthogonalLoop=1;jettySize=auto;html=1;exitX=1;exitY=0.5;exitDx=0;exitDy=0;entryX=0.5;entryY=0;entryDx=0;entryDy=0;" edge="1" parent="1" source="9kNU0SyaG1HSVs7dnBc6-5" target="9kNU0SyaG1HSVs7dnBc6-7">
          <mxGeometry relative="1" as="geometry" />
        </mxCell>
        <mxCell id="9kNU0SyaG1HSVs7dnBc6-5" value="data" style="rectangle;fillColor=#fff2cc;strokeColor=#d6b656;" name="data" vertex="1" parent="1" tooltip="⚠️ Node not part of any valid pattern.">
          <mxGeometry x="700" y="230" width="100" height="50" as="geometry" />
        </mxCell>
        <mxCell id="9kNU0SyaG1HSVs7dnBc6-18" style="edgeStyle=orthogonalEdgeStyle;rounded=0;orthogonalLoop=1;jettySize=auto;html=1;entryX=0.5;entryY=0;entryDx=0;entryDy=0;" edge="1" parent="1" source="9kNU0SyaG1HSVs7dnBc6-7" target="9kNU0SyaG1HSVs7dnBc6-17">
          <mxGeometry relative="1" as="geometry" />
        </mxCell>
        <mxCell id="9kNU0SyaG1HSVs7dnBc6-7" value="transform" style="rounded=1;whiteSpace=wrap;html=1;arcSize=50;fillColor=#f8cecc;strokeColor=#b85450;" name="transform" vertex="1" parent="1">
          <mxGeometry x="830" y="330" width="100" height="50" as="geometry" />
        </mxCell>
        <mxCell id="9kNU0SyaG1HSVs7dnBc6-10" style="edgeStyle=orthogonalEdgeStyle;rounded=0;orthogonalLoop=1;jettySize=auto;html=1;entryX=0.5;entryY=0;entryDx=0;entryDy=0;" edge="1" parent="1" source="9kNU0SyaG1HSVs7dnBc6-9" target="9kNU0SyaG1HSVs7dnBc6-7">
          <mxGeometry relative="1" as="geometry" />
        </mxCell>
        <mxCell id="9kNU0SyaG1HSVs7dnBc6-9" value="symbol" style="rectangle;fillColor=#dae8fc;strokeColor=#6c8ebf;" name="symbol" vertex="1" parent="1">
          <mxGeometry x="960" y="230" width="100" height="50" as="geometry" />
        </mxCell>
        <mxCell id="9kNU0SyaG1HSVs7dnBc6-14" style="edgeStyle=orthogonalEdgeStyle;rounded=0;orthogonalLoop=1;jettySize=auto;html=1;exitX=0;exitY=0.5;exitDx=0;exitDy=0;entryX=1;entryY=0.5;entryDx=0;entryDy=0;" edge="1" parent="1" source="9kNU0SyaG1HSVs7dnBc6-12" target="9kNU0SyaG1HSVs7dnBc6-9">
          <mxGeometry relative="1" as="geometry" />
        </mxCell>
        <mxCell id="9kNU0SyaG1HSVs7dnBc6-12" value="generate:engineer" style="rounded=1;whiteSpace=wrap;html=1;arcSize=50;fillColor=#e1d5e7;strokeColor=#9673a6;" name="generate:engineer" vertex="1" parent="1">
          <mxGeometry x="1140" y="230" width="100" height="50" as="geometry" />
        </mxCell>
        <mxCell id="9kNU0SyaG1HSVs7dnBc6-16" style="edgeStyle=orthogonalEdgeStyle;rounded=0;orthogonalLoop=1;jettySize=auto;html=1;entryX=1;entryY=0.5;entryDx=0;entryDy=0;" edge="1" parent="1" source="9kNU0SyaG1HSVs7dnBc6-15" target="9kNU0SyaG1HSVs7dnBc6-12">
          <mxGeometry relative="1" as="geometry" />
        </mxCell>
        <mxCell id="9kNU0SyaG1HSVs7dnBc6-15" value="actor" style="triangle;fillColor=#ffe6cc;strokeColor=#d79b00;" name="actor" vertex="1" parent="1">
          <mxGeometry x="1320" y="230" width="100" height="50" as="geometry" />
        </mxCell>
        <mxCell id="9kNU0SyaG1HSVs7dnBc6-20" style="edgeStyle=orthogonalEdgeStyle;rounded=0;orthogonalLoop=1;jettySize=auto;html=1;exitX=0.5;exitY=1;exitDx=0;exitDy=0;entryX=0.5;entryY=0;entryDx=0;entryDy=0;" edge="1" parent="1" source="9kNU0SyaG1HSVs7dnBc6-17" target="9kNU0SyaG1HSVs7dnBc6-19">
          <mxGeometry relative="1" as="geometry" />
        </mxCell>
        <mxCell id="9kNU0SyaG1HSVs7dnBc6-17" value="data" style="rectangle;fillColor=#fff2cc;strokeColor=#d6b656;" name="data" vertex="1" parent="1">
          <mxGeometry x="830" y="460" width="100" height="50" as="geometry" />
        </mxCell>
        <mxCell id="9kNU0SyaG1HSVs7dnBc6-22" style="edgeStyle=orthogonalEdgeStyle;rounded=0;orthogonalLoop=1;jettySize=auto;html=1;exitX=0.5;exitY=1;exitDx=0;exitDy=0;entryX=0.5;entryY=0;entryDx=0;entryDy=0;" edge="1" parent="1" source="9kNU0SyaG1HSVs7dnBc6-19" target="9kNU0SyaG1HSVs7dnBc6-21">
          <mxGeometry relative="1" as="geometry" />
        </mxCell>
        <mxCell id="9kNU0SyaG1HSVs7dnBc6-19" value="generate:train" style="rounded=1;whiteSpace=wrap;html=1;arcSize=50;fillColor=#e1d5e7;strokeColor=#9673a6;" name="generate:train" vertex="1" parent="1">
          <mxGeometry x="830" y="590" width="100" height="50" as="geometry" />
        </mxCell>
        <mxCell id="9kNU0SyaG1HSVs7dnBc6-24" style="edgeStyle=orthogonalEdgeStyle;rounded=0;orthogonalLoop=1;jettySize=auto;html=1;exitX=0.5;exitY=1;exitDx=0;exitDy=0;entryX=0.5;entryY=0;entryDx=0;entryDy=0;" edge="1" parent="1" source="9kNU0SyaG1HSVs7dnBc6-21" target="9kNU0SyaG1HSVs7dnBc6-23">
          <mxGeometry relative="1" as="geometry" />
        </mxCell>
        <object label="model" tooltip="case-based&#xa;dynamic&#xa;hybrid&#xa;ML&#xa;rule-based&#xa;semantic&#xa;static&#xa;statisic&#xa;statistical" id="9kNU0SyaG1HSVs7dnBc6-21">
          <mxCell style="shape=hexagon;perimeter=hexagonPerimeter2;fillColor=#b0e3e6;strokeColor=#0e8088;" name="model" vertex="1" parent="1">
            <mxGeometry x="820" y="720" width="120" height="50" as="geometry" />
          </mxCell>
        </object>
        <mxCell id="9kNU0SyaG1HSVs7dnBc6-28" style="edgeStyle=orthogonalEdgeStyle;rounded=0;orthogonalLoop=1;jettySize=auto;html=1;exitX=1;exitY=0.5;exitDx=0;exitDy=0;entryX=0;entryY=0.5;entryDx=0;entryDy=0;" edge="1" parent="1" source="9kNU0SyaG1HSVs7dnBc6-23" target="9kNU0SyaG1HSVs7dnBc6-27">
          <mxGeometry relative="1" as="geometry" />
        </mxCell>
        <mxCell id="9kNU0SyaG1HSVs7dnBc6-23" value="infer:deduce" style="rounded=1;whiteSpace=wrap;html=1;arcSize=50;fillColor=#bac8d3;strokeColor=#23445d;" name="infer:deduce" vertex="1" parent="1">
          <mxGeometry x="830" y="850" width="100" height="50" as="geometry" />
        </mxCell>
        <mxCell id="9kNU0SyaG1HSVs7dnBc6-26" style="edgeStyle=orthogonalEdgeStyle;rounded=0;orthogonalLoop=1;jettySize=auto;html=1;entryX=0;entryY=0.5;entryDx=0;entryDy=0;" edge="1" parent="1" source="9kNU0SyaG1HSVs7dnBc6-25" target="9kNU0SyaG1HSVs7dnBc6-23">
          <mxGeometry relative="1" as="geometry" />
        </mxCell>
        <mxCell id="9kNU0SyaG1HSVs7dnBc6-25" value="data" style="rectangle;fillColor=#fff2cc;strokeColor=#d6b656;" name="data" vertex="1" parent="1">
          <mxGeometry x="660" y="850" width="100" height="50" as="geometry" />
        </mxCell>
        <mxCell id="9kNU0SyaG1HSVs7dnBc6-27" value="symbol" style="rectangle;fillColor=#dae8fc;strokeColor=#6c8ebf;" name="symbol" vertex="1" parent="1">
          <mxGeometry x="1000" y="850" width="100" height="50" as="geometry" />
        </mxCell>
      </root>
    </mxGraphModel>
  </diagram>
</mxfile>
